<mxfile host="app.diagrams.net" modified="2023-06-16T19:37:35.661Z" agent="5.0 (Windows NT 10.0; Win64; x64) AppleWebKit/537.36 (KHTML, like Gecko) Chrome/114.0.0.0 Safari/537.36" etag="UPxi1iC-F7ucgan_fz2G" version="20.8.20" type="github">
  <diagram name="Page-1" id="rg6AFIGPu2cfCfuLSMB0">
    <mxGraphModel dx="862" dy="447" grid="1" gridSize="10" guides="1" tooltips="1" connect="1" arrows="1" fold="1" page="1" pageScale="1" pageWidth="827" pageHeight="1169" math="0" shadow="0">
      <root>
        <mxCell id="0" />
        <mxCell id="1" parent="0" />
        <mxCell id="GXz1wZXAOwhzDFaL_Tbr-7" value="" style="edgeStyle=orthogonalEdgeStyle;rounded=0;orthogonalLoop=1;jettySize=auto;html=1;" edge="1" parent="1" source="GXz1wZXAOwhzDFaL_Tbr-1" target="GXz1wZXAOwhzDFaL_Tbr-2">
          <mxGeometry relative="1" as="geometry" />
        </mxCell>
        <mxCell id="GXz1wZXAOwhzDFaL_Tbr-1" value="Bonita&amp;nbsp;&lt;br&gt;8080" style="rounded=0;whiteSpace=wrap;html=1;" vertex="1" parent="1">
          <mxGeometry x="350" y="210" width="120" height="60" as="geometry" />
        </mxCell>
        <mxCell id="GXz1wZXAOwhzDFaL_Tbr-2" value="PostSQL" style="rounded=0;whiteSpace=wrap;html=1;" vertex="1" parent="1">
          <mxGeometry x="350" y="80" width="120" height="60" as="geometry" />
        </mxCell>
        <mxCell id="GXz1wZXAOwhzDFaL_Tbr-6" value="" style="edgeStyle=orthogonalEdgeStyle;rounded=0;orthogonalLoop=1;jettySize=auto;html=1;" edge="1" parent="1" source="GXz1wZXAOwhzDFaL_Tbr-4" target="GXz1wZXAOwhzDFaL_Tbr-5">
          <mxGeometry relative="1" as="geometry" />
        </mxCell>
        <mxCell id="GXz1wZXAOwhzDFaL_Tbr-4" value="LocalPC" style="rounded=0;whiteSpace=wrap;html=1;" vertex="1" parent="1">
          <mxGeometry x="350" y="330" width="120" height="60" as="geometry" />
        </mxCell>
        <mxCell id="GXz1wZXAOwhzDFaL_Tbr-5" value="Exposed:&lt;br&gt;30960" style="text;html=1;strokeColor=none;fillColor=none;align=center;verticalAlign=middle;whiteSpace=wrap;rounded=0;" vertex="1" parent="1">
          <mxGeometry x="380" y="270" width="60" height="30" as="geometry" />
        </mxCell>
        <mxCell id="GXz1wZXAOwhzDFaL_Tbr-8" value="5432" style="text;html=1;strokeColor=none;fillColor=none;align=center;verticalAlign=middle;whiteSpace=wrap;rounded=0;" vertex="1" parent="1">
          <mxGeometry x="400" y="140" width="60" height="30" as="geometry" />
        </mxCell>
        <mxCell id="GXz1wZXAOwhzDFaL_Tbr-9" value="5432" style="text;html=1;strokeColor=none;fillColor=none;align=center;verticalAlign=middle;whiteSpace=wrap;rounded=0;" vertex="1" parent="1">
          <mxGeometry x="400" y="180" width="60" height="30" as="geometry" />
        </mxCell>
      </root>
    </mxGraphModel>
  </diagram>
</mxfile>
